# xmcd CD database file
#
# Track frame offsets:
#	150
#	15907
#	39207
#	61024
#	95322
#	111412
#	129087
#	144212
#	162002
#
# Disc length: 2556 seconds
#
# Revision: 2
# Processed by: cddbd v1.5.2PL0 Copyright (c) Steve Scherf et al.
# Submitted via: CDex 1.70beta2
#
DISCID=5a09fa09
DTITLE=Billy Joel - The Stranger
DYEAR=1900
DGENRE=Rock
TTITLE0=Movin' Out (Anthony's Song)
TTITLE1=The Stranger
TTITLE2=Just The Way You Are
TTITLE3=Scenes From An Italian Restaurant
TTITLE4=Vienna
TTITLE5=Only The Good Die Young
TTITLE6=She's Always A Woman
TTITLE7=Get It Right The First Time
TTITLE8=Everybody Has A Dream
EXTD=
EXTT0=
EXTT1=
EXTT2=
EXTT3=
EXTT4=
EXTT5=
EXTT6=
EXTT7=
EXTT8=
PLAYORDER=
